<?xml version="1.0" encoding="UTF-8"?>
<svg id="Layer_1" data-name="Layer 1" xmlns="http://www.w3.org/2000/svg" viewBox="0 0 1920 494.88">
  <defs>
    <style>
      .cls-1 {
        stroke-width: 11px;
      }

      .cls-1, .cls-2 {
        fill: #ffb322;
        stroke: #fff9d7;
        stroke-miterlimit: 10;
      }

      .cls-3 {
        fill: #0050e5;
      }

      .cls-2 {
        stroke-width: 18px;
      }
    </style>
  </defs>
  <path class="cls-3" d="M80.28,294.61h46.08c5.7,27.55,29.45,41.8,59.38,41.8,26.13,0,42.28-12.35,42.28-30.88,0-14.73-10.45-25.18-33.25-31.35l-44.65-10.93c-43.23-10.93-65.56-33.73-65.56-68.41,0-44.18,35.63-72.68,84.56-72.68,56.53,0,93.58,34.68,100.23,80.28h-46.08c-5.7-27.55-29.93-41.8-54.63-41.8-23.28,0-37.05,12.35-37.05,29.45,0,15.2,11.88,25.65,34.68,31.35l41.8,10.93c44.65,11.4,66.98,34.68,66.98,69.36,0,41.8-34.68,73.16-88.83,73.16-58.91,0-97.38-34.2-105.94-80.28Z"/>
  <path class="cls-3" d="M350.58,127.4v30.4c21.85-22.33,52.73-36.1,86.46-36.1,71.26,0,127.31,57.01,127.31,126.84s-56.06,126.36-127.31,126.36c-33.73,0-64.13-13.3-85.98-35.63v125.89h-47.98V127.4h47.5Zm83.13,205.22c45.6,0,83.13-37.53,83.13-84.08s-37.53-84.08-83.13-84.08-83.61,37.53-83.61,84.08,37.53,84.08,83.61,84.08Z"/>
  <path class="cls-3" d="M664.58,231.91l75.53-5.7v-15.68c0-27.55-18.05-44.18-49.88-44.18-23.28,0-44.65,7.13-65.08,23.28l-21.38-34.68c25.18-21.38,57.01-31.83,93.11-31.83,54.63,0,90.26,31.83,90.26,81.23v109.26c0,9.03,4.75,13.78,14.25,13.78h12.35v42.28h-23.75c-23.28,0-40.38-11.4-46.55-30.4-16.15,22.33-43.23,35.63-75.53,35.63-47.5,0-82.66-29.93-82.66-72.21s28.98-67.46,79.33-70.78Zm12.83,105.46c34.68,0,62.71-24.23,62.71-54.63v-19.95l-68.41,5.7c-26.6,1.9-40.38,13.78-40.38,33.73s19,35.15,46.08,35.15Z"/>
  <path class="cls-3" d="M1038.92,369.67v-30.4c-21.85,22.33-52.26,36.1-85.98,36.1-71.73,0-127.79-56.53-127.79-126.36s56.53-126.84,127.79-126.84c33.25,0,63.66,13.3,85.51,35.63V37.14h47.98V369.67h-47.5Zm-82.66-204.75c-46.08,0-83.13,37.05-83.13,84.08s37.05,84.08,83.13,84.08,83.13-37.53,83.13-84.08-37.05-84.08-83.13-84.08Z"/>
  <path class="cls-3" d="M1229.89,170.15c-31.35,0-54.16,24.23-54.16,61.76v137.76h-47.98V127.4h47.5v29.93c11.88-19.48,31.35-31.83,57.96-31.83h16.63v44.65h-19.95Z"/>
  <path class="cls-1" d="M1271.68,64.69c0-15.68,12.83-28.5,28.98-28.5s28.03,12.83,28.03,28.5-12.35,28.98-28.03,28.98-28.98-12.83-28.98-28.98Z"/>
  <rect class="cls-3" x="1276.43" y="127.4" width="47.98" height="242.27"/>
  <path class="cls-3" d="M1340.08,127.4h51.78l72.21,177.67,72.21-177.67h50.35l-102.61,242.27h-40.38l-103.56-242.27Z"/>
  <path class="cls-3" d="M1704.92,122.65c69.83,0,121.14,53.68,121.14,125.89v15.68h-197.14c6.65,39.43,39.43,68.88,80.28,68.88,28.03,0,51.78-11.4,69.83-35.63l34.68,25.65c-24.23,32.3-60.33,51.78-104.51,51.78-72.68,0-128.74-54.16-128.74-126.36,0-68.41,53.68-125.89,124.46-125.89Zm-75.06,103.56h147.74c-8.08-37.05-38-61.76-73.63-61.76s-65.56,24.7-74.11,61.76Z"/>
  <circle class="cls-2" cx="433.71" cy="249.01" r="67.22"/>
  <circle class="cls-2" cx="955.79" cy="249.01" r="67.22"/>
</svg>